<svg id="Capa_1" enable-background="new 0 0 501 501" height="512" viewBox="0 0 501 501" width="512" xmlns="http://www.w3.org/2000/svg"><g><path d="m371.006 460.656c-36.106 21.695-78.262 34.349-123.339 34.83-135.408 1.444-247.667-109.571-247.667-244.987 0-135.309 109.69-244.999 245-244.999 99.706 0 185.502 59.56 223.748 145.043-96.323 24.757-165.568 93.289-165.568 173.957 0 49.45 26.021 94.339 68.348 127.38 2.941 2.296 2.676 6.855-.522 8.776z" fill="#fda800"/><path d="m490 250.5c0 89.353-47.833 167.534-119.29 210.333h-305.71c-16.569 0-30-13.431-30-30v-235.75c0-18.916 15.334-34.25 34.25-34.25h403.822c10.927 27.771 16.928 58.018 16.928 89.667z" fill="#bbe0fb"/><path d="m60 460.833c-16.569 0-30-13.431-30-30v-236.833c0-8.284 6.716-15 15-15 8.284 0 15 6.716 15 15z" fill="#91cefb"/><path d="m121.5 249.5h-65c-4.142 0-7.5-3.358-7.5-7.5s3.358-7.5 7.5-7.5h65c4.142 0 7.5 3.358 7.5 7.5s-3.358 7.5-7.5 7.5zm80 15h-85c-4.142 0-7.5 3.358-7.5 7.5s3.358 7.5 7.5 7.5h85c4.142 0 7.5-3.358 7.5-7.5s-3.358-7.5-7.5-7.5zm0 90h-85c-4.142 0-7.5 3.358-7.5 7.5s3.358 7.5 7.5 7.5h85c4.142 0 7.5-3.358 7.5-7.5s-3.358-7.5-7.5-7.5zm0 30h-85c-4.142 0-7.5 3.358-7.5 7.5s3.358 7.5 7.5 7.5h85c4.142 0 7.5-3.358 7.5-7.5s-3.358-7.5-7.5-7.5zm110-30h-75c-4.142 0-7.5 3.358-7.5 7.5s3.358 7.5 7.5 7.5h75c4.142 0 7.5-3.358 7.5-7.5s-3.358-7.5-7.5-7.5zm35 0c-4.142 0-7.5 3.358-7.5 7.5s3.358 7.5 7.5 7.5 7.5-3.358 7.5-7.5-3.358-7.5-7.5-7.5zm-65 30h-45c-4.142 0-7.5 3.358-7.5 7.5s3.358 7.5 7.5 7.5h45c4.142 0 7.5-3.358 7.5-7.5s-3.358-7.5-7.5-7.5zm-165-75h55c4.142 0 7.5-3.358 7.5-7.5s-3.358-7.5-7.5-7.5h-55c-4.142 0-7.5 3.358-7.5 7.5s3.358 7.5 7.5 7.5z" fill="#63bcfa"/><path d="m480 124.5c5.523 0 10 4.477 10 10v20c0 11.046-8.954 20-20 20h-420c-11.046 0-20-8.954-20-20v-60c0-5.523 4.477-10 10-10h124.605c6.253 0 11.85 3.879 14.045 9.733l11.35 30.267z" fill="#05a2f9"/><path d="m80 174.5h-30c-11.046 0-20-8.954-20-20v-60c0-5.523 4.477-10 10-10h30c-5.523 0-10 4.477-10 10v60c0 11.046 8.954 20 20 20zm70-57.5v-5c0-4.142-3.358-7.5-7.5-7.5h-55c-4.142 0-7.5 3.358-7.5 7.5v5c0 4.142 3.358 7.5 7.5 7.5h55c4.142 0 7.5-3.358 7.5-7.5z" fill="#0280e3"/><path d="m89 362c0 4.142-3.358 7.5-7.5 7.5h-25c-4.142 0-7.5-3.358-7.5-7.5s3.358-7.5 7.5-7.5h25c4.142 0 7.5 3.358 7.5 7.5zm-32.5-52.5h25c4.142 0 7.5-3.358 7.5-7.5s-3.358-7.5-7.5-7.5h-25c-4.142 0-7.5 3.358-7.5 7.5s3.358 7.5 7.5 7.5z" fill="#008a80"/><path d="m49 272c0-4.142 3.358-7.5 7.5-7.5h25c4.142 0 7.5 3.358 7.5 7.5s-3.358 7.5-7.5 7.5h-25c-4.142 0-7.5-3.358-7.5-7.5zm32.5 112.5h-25c-4.142 0-7.5 3.358-7.5 7.5s3.358 7.5 7.5 7.5h25c4.142 0 7.5-3.358 7.5-7.5s-3.358-7.5-7.5-7.5zm20-60h-45c-4.142 0-7.5 3.358-7.5 7.5s3.358 7.5 7.5 7.5h45c4.142 0 7.5-3.358 7.5-7.5s-3.358-7.5-7.5-7.5z" fill="#fd4fb6"/><path d="m490 194.5h-460v-40h460z" fill="#fd4fb6"/><path d="m60 194.5h-30v-40h30z" fill="#f02399"/><path d="m65 174.5c0 4.142-3.358 7.5-7.5 7.5s-7.5-3.358-7.5-7.5 3.358-7.5 7.5-7.5 7.5 3.358 7.5 7.5zm17.5-7.5c-4.142 0-7.5 3.358-7.5 7.5s3.358 7.5 7.5 7.5 7.5-3.358 7.5-7.5-3.358-7.5-7.5-7.5zm25 0c-4.142 0-7.5 3.358-7.5 7.5s3.358 7.5 7.5 7.5 7.5-3.358 7.5-7.5-3.358-7.5-7.5-7.5z" fill="#d80d80"/><path d="m221 234.5v-180c0-8.284 6.716-15 15-15h250c8.284 0 15 6.716 15 15v180c0 8.284-6.716 15-15 15h-250c-8.284 0-15-6.716-15-15z" fill="#172a7d"/><path d="m501 54.5v180c0 8.284-6.716 15-15 15h-119.5l-33.863 40.636c-2.305 2.766-5.719 4.365-9.318 4.365-7.495 0-13.197-6.73-11.965-14.124l5.146-30.877h-42.5c-8.284 0-15-6.716-15-15v-180c0-8.284 6.716-15 15-15h212c8.284 0 15 6.716 15 15z" fill="#1f3595"/><path d="m388.792 96.853-40.106 100.837c-1.169 2.939-3.989 4.73-6.971 4.73-.923 0-1.86-.171-2.77-.533-3.85-1.531-5.729-5.892-4.197-9.741l40.106-100.837c1.531-3.85 5.896-5.726 9.74-4.197 3.85 1.531 5.729 5.892 4.198 9.741zm70.563 42.862-26.933-44.672c-2.138-3.547-6.749-4.689-10.295-2.55-3.548 2.139-4.689 6.748-2.551 10.295l24.644 40.875-24.711 42.66c-2.076 3.584-.854 8.173 2.731 10.249 1.183.686 2.476 1.012 3.752 1.012 2.588 0 5.106-1.341 6.497-3.742l26.933-46.496c1.371-2.365 1.346-5.289-.067-7.631zm-181.576 3.949 24.644-40.875c2.139-3.547.997-8.157-2.551-10.295-3.544-2.138-8.155-.997-10.295 2.55l-26.933 44.672c-1.412 2.342-1.438 5.266-.067 7.632l26.933 46.496c1.392 2.401 3.909 3.742 6.497 3.742 1.275 0 2.569-.326 3.752-1.012 3.585-2.076 4.808-6.665 2.731-10.249z" fill="#fff5f5"/></g></svg>